<?xml version="1.0" standalone="no"?>
<!DOCTYPE svg PUBLIC "-//W3C//DTD SVG 1.1//EN" "http://www.w3.org/Graphics/SVG/1.1/DTD/svg11.dtd" >
<svg xmlns="http://www.w3.org/2000/svg">
<metadata>Generated by IcoMoon</metadata>
<defs>
<font id="smart-blocks" horiz-adv-x="1024">
<font-face units-per-em="1024" ascent="960" descent="-64" />
<missing-glyph horiz-adv-x="1024" />
<glyph unicode="&#x20;" horiz-adv-x="512" d="" />
<glyph unicode="&#xe900;" glyph-name="align-center-h" d="M512 720.182q8.71 0 15.242-5.716t7.077-14.426l0.544-2.722v-136.091h172.019q13.065 0 22.591-9.254t9.526-22.319v-27.218q0-13.065-9.526-22.319t-22.591-9.254h-172.019v-45.727h103.974q13.065 0 22.591-9.254t9.526-22.319v-27.218q0-13.065-9.526-22.319t-22.591-9.254h-103.974v-136.091q0-8.71-5.988-15.242t-14.153-7.621h-2.722q-8.71 0-15.242 5.716t-7.077 14.426l-0.544 2.722v136.091h-103.974q-13.065 0-22.591 9.254t-9.526 22.319v27.218q0 13.065 9.526 22.319t22.591 9.254h103.974v45.727h-172.019q-13.065 0-22.591 9.254t-9.526 22.319v27.218q0 13.065 9.526 22.319t22.591 9.254h172.019v136.091q0 8.71 5.988 15.242t14.153 7.621h2.722z" />
<glyph unicode="&#xe901;" glyph-name="align-center-v" d="M457.564 674.999q13.065 0 22.319-9.526t9.254-22.591v-172.019h45.727v103.974q0 13.065 9.254 22.591t22.319 9.526h27.218q13.065 0 22.319-9.526t9.254-22.591v-103.974h136.091q8.71 0 15.242-5.988t7.621-14.153v-2.722q0-8.71-5.716-15.242t-14.426-7.077l-2.722-0.544h-136.091v-103.974q0-13.065-9.254-22.591t-22.319-9.526h-27.218q-13.065 0-22.319 9.526t-9.254 22.591v103.974h-45.727v-172.019q0-13.065-9.254-22.591t-22.319-9.526h-27.218q-13.065 0-22.319 9.526t-9.254 22.591v172.019h-136.091q-8.71 0-15.242 5.988t-7.621 14.153v2.722q0 8.71 5.716 15.242t14.426 7.077l2.722 0.544h136.091v172.019q0 13.065 9.254 22.591t22.319 9.526h27.218z" />
<glyph unicode="&#xe902;" glyph-name="align-end-h" d="M716.136 720.183q8.71 0 15.242-5.716t7.077-14.426l0.544-2.722v-498.638q0-9.254-6.805-16.059t-15.787-6.805-15.514 5.716-7.077 14.426l-0.544 2.722v498.638q0 9.254 6.805 16.059t16.059 6.805zM616.518 425.137q11.976 0 21.23-8.165t10.343-20.686v-29.94q0-11.976-8.165-21.23t-20.686-10.343h-166.031q-12.52 0-21.502 8.165t-10.071 20.686l-0.544 2.722v27.218q0 11.976 8.438 21.23t20.414 10.343h166.576zM616.518 561.228q11.976 0 21.23-8.165t10.343-20.686v-29.94q0-11.976-8.165-21.23t-20.686-10.343h-302.123q-12.52 0-21.502 8.165t-10.071 20.686l-0.544 2.722v27.218q0 11.976 8.438 21.23t20.414 10.343h302.667z" />
<glyph unicode="&#xe903;" glyph-name="align-end-v" d="M761.319 266.727q9.254 0 16.059-6.805t6.805-16.059-6.805-16.059-16.059-6.805h-498.638q-9.254 0-16.059 6.805t-6.805 16.059 6.805 16.059 16.059 6.805h498.638zM457.563 675.001q13.065 0 22.319-9.526t9.254-22.591v-299.401q0-13.065-9.254-22.319t-22.319-9.254h-27.218q-13.065 0-22.319 9.254t-9.254 22.319v299.401q0 13.065 9.254 22.591t22.319 9.526h27.218zM593.654 538.909q13.065 0 22.319-9.526t9.254-22.591v-163.309q0-13.065-9.254-22.319t-22.319-9.254h-27.218q-13.065 0-22.319 9.254t-9.254 22.319v163.309q0 13.065 9.254 22.591t22.319 9.526h27.218z" />
<glyph unicode="&#xe904;" glyph-name="align-start-h" d="M375.909 502.437v27.218q0 13.065 9.254 22.319t22.319 9.254h299.401q13.065 0 22.591-9.254t9.526-22.319v-27.218q0-13.065-9.526-22.319t-22.591-9.254h-299.401q-13.065 0-22.319 9.254t-9.254 22.319zM375.909 366.346v27.218q0 13.065 9.254 22.319t22.319 9.254h163.309q13.065 0 22.591-9.254t9.526-22.319v-27.218q0-13.065-9.526-22.319t-22.591-9.254h-163.309q-13.065 0-22.319 9.254t-9.254 22.319zM307.864 720.183q9.254 0 16.059-6.805t6.805-16.059v-498.638q0-9.254-6.805-16.059t-16.059-6.805-16.059 6.805-6.805 16.059v498.638q0 9.254 6.805 16.059t16.059 6.805z" />
<glyph unicode="&#xe905;" glyph-name="align-start-v" d="M457.563 584.091q13.065 0 22.319-9.254t9.254-22.319v-299.401q0-13.065-9.254-22.591t-22.319-9.526h-27.218q-13.065 0-22.319 9.526t-9.254 22.591v299.401q0 13.065 9.254 22.319t22.319 9.254h27.218zM593.654 584.091q13.065 0 22.319-9.254t9.254-22.319v-163.309q0-13.065-9.254-22.591t-22.319-9.526h-27.218q-13.065 0-22.319 9.526t-9.254 22.591v163.309q0 13.065 9.254 22.319t22.319 9.254h27.218zM761.319 675q9.254 0 16.059-6.805t6.805-16.059-6.805-16.059-16.059-6.805h-498.638q-9.254 0-16.059 6.805t-6.805 16.059 6.805 16.059 16.059 6.805h498.638z" />
<glyph unicode="&#xe906;" glyph-name="align-stretch-h" d="M262.68 720.183q9.254 0 15.787-6.805t6.532-16.059v-498.638q0-9.254-6.532-16.059t-15.787-6.805-16.059 6.805-6.805 16.059v498.638q0 9.254 6.805 16.059t16.059 6.805zM761.319 720.183q9.254 0 16.059-6.805t6.805-16.059v-498.638q0-9.254-6.805-16.059t-16.059-6.805-15.787 6.805-6.532 16.059v498.638q0 9.254 6.532 16.059t15.787 6.805zM661.7 425.137q11.976 0 21.23-8.165t10.343-20.686v-29.94q0-11.976-8.165-21.23t-20.686-10.343h-302.123q-11.976 0-21.23 8.165t-10.343 20.686v29.94q0 11.976 8.165 21.23t20.686 10.343h302.123zM661.7 561.228q11.976 0 21.23-8.165t10.343-20.686v-29.94q0-11.976-8.165-21.23t-20.686-10.343h-302.123q-11.976 0-21.23 8.165t-10.343 20.686v29.94q0 11.976 8.165 21.23t20.686 10.343h302.123z" />
<glyph unicode="&#xe907;" glyph-name="align-stretch-v" d="M761.319 221q9.254 0 16.059-6.532t6.805-15.787-6.805-16.059-16.059-6.805h-498.638q-9.254 0-16.059 6.805t-6.805 16.059 6.805 15.787 16.059 6.532h498.638zM457.563 629.274q11.976 0 21.23-8.165t10.343-20.686v-302.123q0-11.976-8.165-21.23t-20.686-10.343h-29.94q-11.976 0-21.23 8.165t-10.343 20.686v302.123q0 11.976 8.165 21.23t20.686 10.343h29.94zM593.654 629.274q11.976 0 21.23-8.165t10.343-20.686v-302.123q0-11.976-8.165-21.23t-20.686-10.343h-29.94q-11.976 0-21.23 8.165t-10.343 20.686v302.123q0 11.976 8.165 21.23t20.686 10.343h29.94zM761.319 720.183q9.254 0 16.059-6.805t6.805-16.059-6.805-15.787-16.059-6.532h-498.638q-9.254 0-16.059 6.532t-6.805 15.787 6.805 16.059 16.059 6.805h498.638z" />
<glyph unicode="&#xe908;" glyph-name="arrow-down" d="M476.888 318.713l-88.731 86.010q-10.343 10.343-23.68 10.343t-23.68-10.343-10.343-23.952 10.343-23.952l151.878-147.523q10.343-10.343 23.68-10.343t23.68 10.343l143.168 145.345q10.343 10.343 10.343 23.952t-10.343 23.952-23.952 10.343-23.952-10.343l-90.365-93.086 2.177 353.837q0 13.609-10.343 23.68t-23.952 10.071-23.68-10.071-10.071-23.68l-2.177-344.583z" />
<glyph unicode="&#xe909;" glyph-name="arrow-left" d="M382.441 412.332l86.010-88.187q10.343-10.343 10.343-23.952t-10.343-23.952-23.952-10.343-23.952 10.343l-146.979 151.878q-10.343 10.343-10.343 23.952t10.343 23.952l144.801 142.624q9.799 11.976 23.408 11.432t24.224-11.159 10.615-23.952-10.343-23.68l-93.086-90.909 353.837 2.177q13.609 0 23.68-10.071t10.071-23.68-10.071-23.952-23.68-10.343l-344.583-2.177z" />
<glyph unicode="&#xe90a;" glyph-name="arrow-right" d="M641.831 412.888l-86.554-88.187q-10.343-10.343-10.343-23.952t10.343-23.952 23.952-10.343 23.952 10.343l147.523 151.878q10.343 10.343 10.343 23.952t-10.343 23.952l-145.345 142.624q-10.343 10.343-23.952 10.343t-23.952-10.343-10.343-23.68 10.343-23.68l93.086-90.909-353.837 2.177q-13.609 0-23.68-10.071t-10.071-23.68 10.071-23.952 23.68-10.343l345.127-2.177z" />
<glyph unicode="&#xe90b;" glyph-name="arrow-up" d="M475.15 576.742l-88.731-86.554q-10.343-10.343-23.68-10.343t-23.408 10.071-9.254 25.041 11.159 25.313l151.878 147.523q10.343 10.343 23.68 10.343t23.68-10.343l143.168-145.345q10.343-10.343 10.343-23.68t-10.343-23.68-23.952-10.343-23.952 10.343l-90.365 92.542v-356.015q0-13.609-10.343-23.68t-23.952-10.071-23.68 10.071-10.071 23.68l-2.177 345.127z" />
<glyph unicode="&#xe90c;" glyph-name="barcode" d="M306.774 652.137v-408.274h-22.863v408.274h22.863zM329.637 652.137v-408.274h-22.863v408.274h22.863zM351.956 652.137v-408.274h-20.142v408.274h20.142zM374.819 652.137v-408.274h-17.964v408.274h17.964zM397.683 652.137v-408.274h-18.508v408.274h18.508zM420.002 652.137v-408.274h-15.787v408.274h15.787zM442.865 652.137v-408.274h-15.787v408.274h15.787zM465.728 652.137v-408.274h-13.609v408.274h13.609zM488.047 652.137v-408.274h-13.609v408.274h13.609zM510.91 652.137v-408.274h-11.432v408.274h11.432zM535.951 652.137v-408.274h-11.432v408.274h11.432zM558.815 652.137v-408.274h-9.254v408.274h9.254zM581.134 652.137v-408.274h-8.71v408.274h8.71zM603.997 652.137v-408.274h-7.077v408.274h7.077zM626.86 652.137v-408.274h-7.077v408.274h7.077zM649.179 652.137v-408.274h-4.355v408.274h4.355zM672.042 652.137v-408.274h-4.355v408.274h4.355zM694.906 652.137v-408.274h-2.722v408.274h2.722zM717.225 652.137v-408.274h-2.177v408.274h2.177zM740.088 652.137v-408.274h-2.177v408.274h2.177z" />
<glyph unicode="&#xe90d;" glyph-name="grow" d="M262.68 720.183q9.254 0 15.787-6.805t6.532-16.059v-498.638q0-9.254-6.532-16.059t-15.787-6.805-16.059 6.805-6.805 16.059v498.638q0 9.254 6.805 16.059t16.059 6.805zM761.319 720.183q9.254 0 16.059-6.805t6.805-16.059v-498.638q0-9.254-6.805-16.059t-16.059-6.805-15.787 6.805-6.532 16.059v498.638q0 9.254 6.532 16.059t15.787 6.805zM596.376 572.66q5.444 0.544 10.887-2.722l1.633-1.633 90.909-105.062q4.899-6.532 5.171-13.337t-1.905-11.159l-1.089-2.722-91.453-106.151q-4.899-5.444-11.432-5.988t-12.52 3.811q-4.355 4.355-5.988 10.343l-0.544 3.266v61.513h-136.091v-61.513q-2.177-9.799-6.532-13.609-5.988-4.355-12.52-3.811t-11.432 5.988l-89.276 103.429-1.633 2.722q-3.811 5.444-2.994 13.609t4.627 13.065l91.453 105.607q4.899 4.899 11.432 4.355t12.52-6.532q4.355-5.988 4.355-13.609v-59.336h136.091v59.336q0 5.988 2.722 11.432l1.633 2.177q5.988 5.988 11.976 6.532z" />
<glyph unicode="&#xe90e;" glyph-name="h-align-center" d="M511.728 704.396q12.52 0 20.958-8.438t8.438-20.958v-454q0-11.976-8.438-20.686t-20.686-8.71-20.958 8.71-8.71 20.686v454q0 12.52 8.71 20.958t20.686 8.438zM680.482 523.667v-46.271h46.815q13.065 0 22.863-7.621t10.887-19.053v-2.722q0-11.432-8.71-19.869t-21.775-9.526h-50.082v-46.271q0-6.532-4.355-10.615t-10.615-4.355-10.615 4.627l-74.578 75.122q-4.355 4.355-4.355 10.887t4.355 10.887l74.578 75.122q4.355 4.899 10.615 4.627t10.615-4.355 4.355-10.615zM367.472 535.643l1.633-1.633 74.578-75.122q3.811-3.811 4.355-9.526t-2.722-10.071l-1.633-2.177-74.578-75.122q-4.355-4.355-9.799-4.627t-10.071 3.266-5.716 9.526v48.448h-50.082q-11.976 1.089-20.686 8.71t-9.799 17.964v5.988q1.089 10.343 9.799 17.964t20.686 8.71h50.082v46.271q0 5.988 4.083 10.071t9.799 4.627 10.071-3.266z" />
<glyph unicode="&#xe90f;" glyph-name="h-align-left" d="M288.538 704.396q12.52 0 21.23-8.71t8.71-20.686v-454q0-11.976-8.71-20.686t-20.958-8.71-20.958 8.71-8.71 20.686v454q0 12.52 8.71 20.958t20.686 8.438zM432.251 523.123q4.355 4.355 10.343 4.355t10.343-4.355 4.355-10.887v-46.271h277.082q12.52-1.089 21.502-9.526t8.982-19.869v-2.722q-1.089-11.432-10.887-19.053t-22.863-7.621h-273.816v-46.271q0-6.532-4.355-10.615t-10.343-4.355-10.343 4.627l-74.578 75.667q-4.355 4.355-4.355 10.615t4.355 10.615l74.578 75.667z" />
<glyph unicode="&#xe910;" glyph-name="h-align-right" d="M735.462 704.396q12.52 0 20.958-8.438t8.438-20.958v-454q0-11.976-8.438-20.686t-20.686-8.71-20.958 8.71-8.71 20.686v454q0 12.52 8.71 20.958t20.686 8.438zM591.749 523.123l74.578-75.667q4.355-4.355 4.355-10.615t-4.355-10.615l-74.578-75.667q-4.355-4.899-10.343-4.627t-10.343 4.355-4.355 10.615v46.271h-273.816q-13.065 0-22.863 7.893t-10.887 18.781v2.722q0 11.976 8.71 20.142t21.775 9.254h277.082v46.271q0 6.532 4.355 10.887t10.343 4.355 10.343-4.355z" />
<glyph unicode="&#xe911;" glyph-name="h-align-stretch" d="M511.689 704.396q12.52 0 20.958-8.438t8.438-20.958v-454q0-11.976-8.438-20.686t-20.686-8.71-20.958 8.71-8.71 20.686v454q0 12.52 8.71 20.958t20.686 8.438zM680.443 535.643l1.633-1.633 74.578-75.122q3.811-3.811 4.355-9.526t-2.722-10.071l-1.633-2.177-74.578-75.122q-4.355-4.355-9.799-4.627t-10.071 3.266-5.716 9.526v48.448h-50.082q-11.976 1.089-20.686 8.71t-9.799 17.964v5.988q1.089 10.343 9.799 17.964t20.686 8.71h50.082v46.271q0 5.988 4.083 10.071t9.799 4.627 10.071-3.266zM367.433 523.667v-46.271h46.815q13.065 0 22.863-7.621t10.887-19.053v-2.722q0-11.432-8.71-19.869t-21.775-9.526h-50.082v-46.271q0-6.532-4.355-10.615t-10.615-4.355-10.615 4.627l-74.578 75.122q-4.355 4.355-4.355 10.887t4.355 10.887l74.578 75.122q4.355 4.899 10.615 4.627t10.615-4.355 4.355-10.615z" />
<glyph unicode="&#xe912;" glyph-name="justify-center-h" d="M512 720.183q8.71 0 15.242-5.716t7.077-14.426l0.544-2.722v-498.638q0-9.254-6.805-16.059t-15.787-6.805-15.514 5.716-7.077 14.426l-0.544 2.722v498.638q0 9.254 6.805 16.059t16.059 6.805zM641.559 629.274q12.52 0 20.958-8.438t8.438-20.958v-303.756q0-11.976-8.438-20.686t-20.958-8.71h-32.118q-11.976 0-20.686 8.71t-8.71 20.686v303.756q0 12.52 8.71 20.958t20.686 8.438h32.118zM414.559 629.274q12.52 0 20.958-8.438t8.438-20.958v-303.756q0-11.976-8.438-20.686t-20.958-8.71h-31.573q-12.52 0-21.23 8.71t-8.71 20.686v303.756q0 11.976 8.71 20.686t21.23 8.71h31.573z" />
<glyph unicode="&#xe913;" glyph-name="justify-center-v" d="M663.877 379.955q12.52 0 20.958-8.438t8.438-20.958v-31.573q0-12.52-8.71-21.23t-20.686-8.71h-303.756q-11.976 0-20.686 8.71t-8.71 21.23v31.573q0 12.52 8.71 20.958t20.686 8.438h303.756zM761.319 470.864q9.254 0 16.059-6.805t6.805-15.787-5.716-15.514-14.426-7.077l-2.722-0.544h-498.638q-9.254 0-16.059 6.805t-6.805 15.787 5.716 15.514 14.426 7.077l2.722 0.544h498.638zM663.877 606.955q12.52 0 20.958-8.438t8.438-20.958v-32.118q0-11.976-8.438-20.686t-20.958-8.71h-303.756q-11.976 0-20.686 8.71t-8.71 20.686v32.118q0 12.52 8.71 20.958t20.686 8.438h303.756z" />
<glyph unicode="&#xe914;" glyph-name="justify-end-h" d="M648.092 720.183q8.71 0 15.242-5.716t7.077-14.426l0.544-2.722v-498.638q0-9.254-6.805-16.059t-15.787-6.805-15.514 5.716-7.077 14.426l-0.544 2.722v498.638q0 9.254 6.805 16.059t16.059 6.805zM550.65 629.274q12.52 0 20.958-8.438t8.438-20.958v-303.756q0-11.976-8.438-20.686t-20.958-8.71h-31.573q-12.52 0-21.23 8.71t-8.71 20.686v303.756q0 11.976 8.71 20.686t21.23 8.71h31.573zM414.559 629.274q12.52 0 20.958-8.438t8.438-20.958v-303.756q0-11.976-8.438-20.686t-20.958-8.71h-31.573q-12.52 0-21.23 8.71t-8.71 20.686v303.756q0 11.976 8.71 20.686t21.23 8.71h31.573z" />
<glyph unicode="&#xe915;" glyph-name="justify-end-v" d="M761.319 334.773q9.254 0 16.059-6.805t6.805-15.787-5.716-15.514-14.426-7.077l-2.722-0.544h-498.638q-9.254 0-16.059 6.805t-6.805 15.787 5.716 15.514 14.426 7.077l2.722 0.544h498.638zM663.877 470.864q12.52 0 20.958-8.438t8.438-20.958v-32.118q0-11.976-8.438-20.686t-20.958-8.71h-303.756q-11.976 0-20.686 8.71t-8.71 20.686v32.118q0 12.52 8.71 20.958t20.686 8.438h303.756zM663.877 606.955q12.52 0 20.958-8.438t8.438-20.958v-32.118q0-11.976-8.438-20.686t-20.958-8.71h-303.756q-11.976 0-20.686 8.71t-8.71 20.686v32.118q0 12.52 8.71 20.958t20.686 8.438h303.756z" />
<glyph unicode="&#xe916;" glyph-name="justify-space-around-h" d="M761.319 720.183q8.71 0 15.242-5.716t7.621-14.426v-501.36q0-9.254-6.805-16.059t-15.787-6.805-15.514 5.716-7.077 14.426v501.36q0 9.254 6.532 16.059t15.787 6.805zM262.68 720.183q8.71 0 15.242-5.716t7.077-14.426v-501.36q0-9.254-6.532-16.059t-15.514-6.805-15.514 5.716-7.621 14.426v501.36q0 9.254 6.805 16.059t16.059 6.805zM593.654 629.274q13.065 0 22.319-9.254t9.254-22.319v-299.401q0-13.065-9.254-22.319t-22.319-9.254h-27.218q-13.065 0-22.319 9.254t-9.254 22.319v299.401q0 13.065 9.254 22.319t22.319 9.254h27.218zM457.563 629.274q13.065 0 22.319-9.254t9.254-22.319v-299.401q0-13.065-9.254-22.319t-22.319-9.254h-27.218q-13.065 0-22.319 9.254t-9.254 22.319v299.401q0 13.065 9.254 22.319t22.319 9.254h27.218z" />
<glyph unicode="&#xe917;" glyph-name="justify-space-around-v" d="M761.319 220.999q9.254 0 16.059-6.532t6.805-15.514-5.716-15.514-14.426-7.621h-501.36q-9.254 0-16.059 6.805t-6.805 15.787 5.716 15.514 14.426 7.077h501.36zM661.7 425.136q13.065 0 22.319-9.254t9.254-22.319v-27.218q0-13.065-9.254-22.319t-22.319-9.254h-299.401q-13.065 0-22.319 9.254t-9.254 22.319v27.218q0 13.065 9.254 22.319t22.319 9.254h299.401zM661.7 561.227q13.065 0 22.319-9.254t9.254-22.319v-27.218q0-13.065-9.254-22.319t-22.319-9.254h-299.401q-13.065 0-22.319 9.254t-9.254 22.319v27.218q0 13.065 9.254 22.319t22.319 9.254h299.401zM761.319 720.182q9.254 0 16.059-6.805t6.805-15.787-5.716-15.514-14.426-7.077h-501.36q-9.254 0-16.059 6.532t-6.805 15.514 5.716 15.514 14.426 7.621h501.36z" />
<glyph unicode="&#xe918;" glyph-name="justify-space-between-h" d="M262.68 720.183q8.71 0 15.242-5.716t7.077-14.426v-501.36q0-9.254-6.532-16.059t-15.514-6.805-15.514 5.716-7.621 14.426v501.36q0 9.254 6.805 16.059t16.059 6.805zM761.319 720.183q8.71 0 15.242-5.716t7.621-14.426v-501.36q0-9.254-6.805-16.059t-15.787-6.805-15.514 5.716-7.077 14.426v501.36q0 9.254 6.532 16.059t15.787 6.805zM389.517 629.274q13.065 0 22.319-9.254t9.254-22.319v-299.401q0-13.065-9.254-22.319t-22.319-9.254h-58.791v362.547h58.791zM693.273 629.274v-362.547h-58.791q-13.065 0-22.319 9.254t-9.254 22.319v299.401q0 13.065 9.254 22.319t22.319 9.254h58.791z" />
<glyph unicode="&#xe919;" glyph-name="justify-space-between-v" d="M761.319 220.999q9.254 0 16.059-6.532t6.805-15.514-5.716-15.514-14.426-7.621h-501.36q-9.254 0-16.059 6.805t-6.805 15.787 5.716 15.514 14.426 7.077h501.36zM661.7 357.091q13.065 0 22.319-9.254t9.254-22.319v-58.791h-362.547v58.791q0 13.065 9.254 22.319t22.319 9.254h299.401zM693.273 629.273v-58.791q0-13.065-9.254-22.319t-22.319-9.254h-299.401q-13.065 0-22.319 9.254t-9.254 22.319v58.791h362.547zM761.319 720.182q9.254 0 16.059-6.805t6.805-15.787-5.716-15.514-14.426-7.077h-501.36q-9.254 0-16.059 6.532t-6.805 15.514 5.716 15.514 14.426 7.621h501.36z" />
<glyph unicode="&#xe91a;" glyph-name="justify-space-evenly-h" d="M761.319 720.183q8.71 0 15.242-5.716t7.621-14.426v-501.36q0-9.254-6.805-16.059t-15.787-6.805-15.514 5.716-7.077 14.426v501.36q0 9.254 6.532 16.059t15.787 6.805zM262.68 720.183q8.71 0 15.242-5.716t7.077-14.426v-501.36q0-9.254-6.532-16.059t-15.514-6.805-15.514 5.716-7.621 14.426v501.36q0 9.254 6.805 16.059t16.059 6.805zM616.518 629.274q13.065 0 22.319-9.254t9.254-22.319v-299.401q0-13.065-9.254-22.319t-22.319-9.254h-27.218q-13.065 0-22.591 9.254t-9.526 22.319v299.401q0 13.065 9.526 22.319t22.591 9.254h27.218zM434.7 629.274q13.065 0 22.591-9.254t9.526-22.319v-299.401q0-13.065-9.526-22.319t-22.591-9.254h-27.218q-13.065 0-22.319 9.254t-9.254 22.319v299.401q0 13.065 9.254 22.319t22.319 9.254h27.218z" />
<glyph unicode="&#xe91b;" glyph-name="justify-space-evenly-v" d="M761.319 220.999q9.254 0 16.059-6.532t6.805-15.514-5.716-15.514-14.426-7.621h-501.36q-9.254 0-16.059 6.805t-6.805 15.787 5.716 15.514 14.426 7.077h501.36zM661.7 402.817q13.065 0 22.319-9.526t9.254-22.591v-27.218q0-13.065-9.254-22.319t-22.319-9.254h-299.401q-13.065 0-22.319 9.254t-9.254 22.319v27.218q0 13.065 9.254 22.591t22.319 9.526h299.401zM661.7 584.091q13.065 0 22.319-9.254t9.254-22.319v-27.218q0-13.065-9.254-22.591t-22.319-9.526h-299.401q-13.065 0-22.319 9.526t-9.254 22.591v27.218q0 13.065 9.254 22.319t22.319 9.254h299.401zM761.319 720.182q9.254 0 16.059-6.805t6.805-15.787-5.716-15.514-14.426-7.077h-501.36q-9.254 0-16.059 6.532t-6.805 15.514 5.716 15.514 14.426 7.621h501.36z" />
<glyph unicode="&#xe91c;" glyph-name="justify-start-h" d="M375.909 720.183q8.71 0 15.242-5.716t7.077-14.426l0.544-2.722v-498.638q0-9.254-6.805-16.059t-15.787-6.805-15.514 5.716-7.077 14.426l-0.544 2.722v498.638q0 9.254 6.805 16.059t16.059 6.805zM505.468 629.274q12.52 0 20.958-8.438t8.438-20.958v-303.756q0-11.976-8.438-20.686t-20.958-8.71h-32.118q-11.976 0-20.686 8.71t-8.71 20.686v303.756q0 12.52 8.71 20.958t20.686 8.438h32.118zM641.559 629.274q12.52 0 20.958-8.438t8.438-20.958v-303.756q0-11.976-8.438-20.686t-20.958-8.71h-32.118q-11.976 0-20.686 8.71t-8.71 20.686v303.756q0 12.52 8.71 20.958t20.686 8.438h32.118z" />
<glyph unicode="&#xe91d;" glyph-name="justify-start-v" d="M663.877 379.954q12.52 0 20.958-8.438t8.438-20.958v-31.573q0-12.52-8.71-21.23t-20.686-8.71h-303.756q-11.976 0-20.686 8.71t-8.71 21.23v31.573q0 12.52 8.71 20.958t20.686 8.438h303.756zM663.877 516.045q12.52 0 20.958-8.438t8.438-20.958v-31.573q0-12.52-8.71-21.23t-20.686-8.71h-303.756q-11.976 0-20.686 8.71t-8.71 21.23v31.573q0 12.52 8.71 20.958t20.686 8.438h303.756zM761.319 606.954q9.254 0 16.059-6.805t6.805-15.787-5.716-15.514-14.426-7.077l-2.722-0.544h-498.638q-9.254 0-16.059 6.805t-6.805 15.787 5.716 15.514 14.426 7.077l2.722 0.544h498.638z" />
<glyph unicode="&#xe91e;" glyph-name="order-end" d="M761.319 720.183q8.71 0 15.242-5.716t7.621-14.426v-501.36q0-8.71-5.716-15.242t-14.426-7.621h-5.444q-7.621 0.544-13.337 6.532t-6.805 13.609v501.36q0 8.71 5.716 15.242t14.426 7.621h2.722zM557.182 584.092q7.621 1.089 13.065-3.266l2.177-1.633 113.772-114.861q5.444-4.355 7.077-14.698 0-7.077-2.722-11.976l-1.633-2.722-2.722-3.266-111.595-112.684q-5.444-5.988-14.698-7.077-7.621 0-15.242 4.899-5.444 5.444-7.077 11.432l-1.089 3.266v71.312h-264.561q-13.609 0-22.863 9.254t-9.254 22.319v27.218q0 13.065 9.254 22.319t22.863 9.254h264.561v69.134q0 7.077 3.811 12.52l1.633 2.177q7.077 6.532 15.242 7.077z" />
<glyph unicode="&#xe91f;" glyph-name="order-start" d="M262.953 720.182q9.254 0 16.059-6.805t6.805-16.059v-498.638q0-8.71-5.716-15.242t-14.426-7.621h-2.722q-9.254 0-16.059 6.805t-6.805 16.059v498.638q0 8.71 5.716 15.242t14.426 7.621h2.722zM467.090 584.091q7.621-0.544 14.698-7.077 5.444-5.444 5.444-14.698v-69.134h264.561q12.52 0 21.775-8.165t10.343-20.686v-29.94q0-11.976-8.165-21.23t-20.686-10.343h-267.828v-71.312q-1.633-8.71-8.438-14.153t-14.698-5.444-14.97 7.077l-114.317 115.405q-4.899 6.532-3.811 15.514t6.532 14.426l113.772 114.317q6.532 6.532 15.787 5.444z" />
<glyph unicode="&#xe920;" glyph-name="text-align-center" d="M342.159 475.218q-13.609 0-23.952 8.71t-10.343 20.686 10.343 20.686 23.952 8.71h337.506q15.242 0 24.769-8.71t9.526-20.686-10.343-20.686-23.952-8.71h-337.506zM387.341 361.99q-13.609 0-23.952 8.71t-10.343 20.686 10.343 20.686 23.952 8.71h249.319q13.609 0 23.952-8.71t10.343-20.686-10.343-20.686-23.952-8.71h-249.319zM296.432 248.218q-13.609 0-23.68 8.982t-10.071 20.958 10.071 20.686 23.68 8.71h431.137q13.609 0 23.68-8.71t10.071-20.686-10.071-20.958-23.68-8.982h-431.137zM434.701 588.446q-15.242 0-25.585 8.71t-10.343 21.23 10.343 20.958 25.585 8.438h154.6q14.698 0 25.313-8.71t10.615-20.686-10.615-20.958-25.313-8.982h-154.6z" />
<glyph unicode="&#xe921;" glyph-name="text-align-justify" d="M296.432 248.218q-13.609 0-23.68 8.982t-10.071 20.958 10.071 20.686 23.68 8.71h431.137q13.609 0 23.68-8.71t10.071-20.686-10.071-20.958-23.68-8.982h-431.137zM296.432 361.99q-13.609 0-23.68 8.71t-10.071 20.686 10.071 20.686 23.68 8.71h431.137q13.609 0 23.68-8.71t10.071-20.686-10.071-20.686-23.68-8.71h-431.137zM296.432 475.218q-13.609 0-23.68 8.71t-10.071 20.686 10.071 20.686 23.68 8.71h431.137q13.609 0 23.68-8.71t10.071-20.686-10.071-20.686-23.68-8.71h-431.137zM296.432 588.446q-13.609 0-23.68 8.982t-10.071 20.958 10.071 20.686 23.68 8.71h431.137q13.609 0 23.68-8.71t10.071-20.686-10.071-20.958-23.68-8.982h-431.137z" />
<glyph unicode="&#xe922;" glyph-name="text-align-left" d="M296.432 475.218q-13.609 0-23.68 8.71t-10.071 20.686 10.071 20.686 23.68 8.71h408.274q13.609 0 23.952-8.71t10.343-20.686-10.343-20.686-23.952-8.71h-408.274zM296.432 361.99q-13.609 0-23.68 8.71t-10.071 20.686 10.071 20.686 23.68 8.71h340.228q13.609 0 23.952-8.71t10.343-20.686-10.343-20.686-23.952-8.71h-340.228zM296.432 248.218q-13.609 0-23.68 8.982t-10.071 20.958 10.071 20.686 23.68 8.71h431.137q13.609 0 23.68-8.71t10.071-20.686-10.071-20.958-23.68-8.982h-431.137zM296.432 588.446q-13.609 0-23.68 8.982t-10.071 20.958 10.071 20.686 23.68 8.71h295.046q13.609 0 23.68-8.71t10.071-20.686-10.071-20.958-23.68-8.982h-295.046z" />
<glyph unicode="&#xe923;" glyph-name="text-align-right" d="M727.568 475.218h-408.274q-13.609 0-23.952 8.71t-10.343 20.686 10.343 20.686 23.952 8.71h408.274q13.609 0 23.68-8.71t10.071-20.686-10.071-20.686-23.68-8.71zM727.568 361.99h-340.228q-13.609 0-23.952 8.71t-10.343 20.686 10.343 20.686 23.952 8.71h340.228q13.609 0 23.68-8.71t10.071-20.686-10.071-20.686-23.68-8.71zM727.568 248.218h-431.137q-13.609 0-23.68 8.982t-10.071 20.958 10.071 20.686 23.68 8.71h431.137q13.609 0 23.68-8.71t10.071-20.686-10.071-20.958-23.68-8.982zM727.568 588.446h-295.046q-13.609 0-23.68 8.982t-10.071 20.958 10.071 20.686 23.68 8.71h295.046q13.609 0 23.68-8.71t10.071-20.686-10.071-20.958-23.68-8.982z" />
<glyph unicode="&#xe924;" glyph-name="v-align-bottom" d="M739 253.934q12.52 0 20.958-8.438t8.438-20.686-8.438-20.958-20.958-8.71h-454q-11.976 0-20.686 8.71t-8.71 20.958 8.71 20.686 20.686 8.438h454zM509.278 700.858h2.722q11.432 0 19.869-8.71t9.526-21.775v-277.082h46.271q6.532 0 10.615-4.355t4.355-10.343-4.627-10.343l-75.122-74.578q-4.355-4.355-10.887-4.355t-10.887 4.355l-75.122 74.578q-4.899 4.355-4.627 10.343t4.355 10.343 10.615 4.355h46.271v273.816q0 13.065 7.893 22.863t18.781 10.887v0z" />
<glyph unicode="&#xe925;" glyph-name="v-align-middle" d="M520.709 381.315l2.177-1.633 75.122-74.578q4.355-4.355 4.627-9.799t-3.266-10.071-9.526-5.171l-2.177-0.544h-46.271v-49.537q-1.089-12.52-8.71-21.23t-17.964-9.799h-5.988q-10.343 1.089-17.964 9.799t-8.71 21.23v49.537h-46.271q-5.988 0-10.071 4.083t-4.627 9.799 2.722 10.071l77.3 76.211q3.811 3.811 9.526 4.355t10.071-2.722zM739 477.123q12.52 0 20.958-8.438t8.438-20.686-8.438-20.958-20.958-8.71h-454q-11.976 0-20.686 8.71t-8.71 20.958 8.71 20.686 20.686 8.438h454zM511.999 697.047q11.432 0 19.869-8.71t9.526-21.775v-50.082h46.271q6.532 0 10.615-4.355t4.355-10.615-4.627-10.615l-75.122-74.578q-4.355-4.355-10.887-4.355t-10.887 4.355l-75.122 74.578q-4.899 4.355-4.627 10.615t4.355 10.615 10.615 4.355h46.271v46.815q0 11.976 6.805 21.502t17.147 11.704l2.722 0.544h2.722z" />
<glyph unicode="&#xe926;" glyph-name="v-align-stretch" d="M511.999 383.999q11.432 0 19.869-8.71t9.526-21.775v-50.082h46.271q6.532 0 10.615-4.355t4.355-10.615-4.627-10.615l-75.122-74.578q-4.355-4.355-10.887-4.355t-10.887 4.355l-75.122 74.578q-4.899 4.355-4.627 10.615t4.355 10.615 10.615 4.355h46.271v46.815q0 11.976 6.805 21.502t17.147 11.704l2.722 0.544h2.722zM739 477.085q12.52 0 20.958-8.438t8.438-20.686-8.438-20.958-20.958-8.71h-454q-11.976 0-20.686 8.71t-8.71 20.958 8.71 20.686 20.686 8.438h454zM520.709 694.287l2.177-1.633 75.122-74.578q4.355-4.355 4.627-9.799t-3.266-10.071-9.526-5.716h-48.448v-50.082q-1.089-11.976-8.71-20.686t-17.964-9.799h-5.988q-10.343 1.089-17.964 9.799t-8.71 20.686v50.082h-46.271q-5.988 0-10.071 3.811t-4.627 9.526 2.722 10.615l77.3 76.211q3.811 3.811 9.526 4.355t10.071-2.722z" />
<glyph unicode="&#xe927;" glyph-name="v-align-top" d="M501.112 602.872q4.355 4.355 10.887 4.355t10.887-4.355l75.122-75.122q4.899-4.355 4.627-10.343t-4.355-10.343-10.615-4.355h-46.271v-277.082q-1.089-12.52-9.526-21.502t-19.869-8.982h-2.722q-11.432 1.089-19.053 10.887t-7.621 22.863v273.816h-46.271q-6.532 0-10.615 4.355t-4.355 10.343 4.627 10.343l75.122 75.122zM739 700.857q12.52 0 20.958-8.438t8.438-20.686-8.438-20.958-20.958-8.71h-454q-11.976 0-20.686 8.71t-8.71 20.958 8.71 20.686 20.686 8.438h454z" />
<glyph unicode="&#xe928;" glyph-name="wrap" d="M246.681 720.183q9.254 0 15.787-6.805t6.532-16.059v-498.638q0-9.254-6.532-16.059t-15.787-6.805-16.059 6.805-6.805 16.059v498.638q0 9.254 6.805 16.059t16.059 6.805zM593.442 629.274q55.525 0 95.808-19.597 38.65-19.053 58.791-54.709t20.142-83.56-19.597-83.288-57.158-55.253-91.453-20.958h-130.103v-68.59q0-7.621-3.811-13.065l-1.633-1.633q-7.077-7.077-14.698-7.621-5.988-0.544-13.065 3.266l-2.177 1.633-113.772 114.861q-4.899 4.899-6.532 14.698-0.544 5.988 2.177 12.52l4.355 5.444 111.050 112.684q7.077 7.077 14.97 7.077t14.97-4.899q5.444-4.355 7.077-10.887l1.089-3.266v-71.312h123.026q31.573 0 49.809 7.077t26.402 22.047 8.165 38.922q0 34.295-17.42 50.082-18.508 16.875-60.969 17.964h-284.159v90.365h278.715z" />
</font>
</defs>
</svg>
